<svg width="752" height="543" viewBox="0 0 752 543" fill="none" xmlns="http://www.w3.org/2000/svg">
<path fill-rule="evenodd" clip-rule="evenodd" d="M482.165 1.13696C447.593 6.06496 416.116 17.15 388 34.297C360.697 50.948 334.61 75.6939 315.467 103.101C300.701 124.241 287.329 153.854 281.075 179.263L278.328 190.425L273.208 189.897C266.763 189.232 257.067 191.632 250.1 195.619C240.528 201.095 231.631 211.846 231.631 217.935C231.631 219.263 230.956 222.263 230.131 224.601C227.252 232.761 228.685 242.354 232.597 241.112C233.894 240.7 235.068 241.406 236.552 243.49C240.571 249.135 247.937 253.487 259.802 257.227C273.714 261.613 282.491 265.837 290.504 272.003C296.15 276.348 296.631 277.024 296.631 280.61C296.631 287.643 294.632 294.554 292.122 296.199C290 297.589 289.453 297.55 285.962 295.758C283.855 294.676 279.206 291.508 275.631 288.717C250.266 268.916 243.427 264.577 229.686 259.562C220.444 256.189 219.071 256.012 218.273 258.092C217.88 259.116 219.473 260.718 223.356 263.202C233.422 269.641 242.779 277.666 260.812 295.323C279.374 313.5 283.723 316.539 291.233 316.579C300.193 316.627 307.115 307.921 307.116 296.601C307.117 290.398 303.563 278.601 301.693 278.601C301.305 278.601 300.019 276.463 298.835 273.851C294.38 264.019 285.837 256.987 268.342 248.755C257.325 243.572 253.522 240.994 249.568 236.032C246.843 232.613 246.492 231.501 246.873 227.492C247.113 224.957 248.697 219.921 250.392 216.299C252.802 211.147 253.201 209.489 252.221 208.676C251.319 207.927 250.037 208.326 247.622 210.108C245.781 211.466 244.048 212.351 243.771 212.074C242.75 211.053 250.059 204.651 255.647 201.673C261.712 198.441 263.834 197.798 261.831 199.801C261.171 200.461 260.631 202.221 260.631 203.712C260.631 207.77 268.57 213.87 269.798 210.756C270.279 209.535 275.631 208.383 275.631 209.5C275.631 210.016 275.343 211.187 274.992 212.103C274.48 213.437 274.178 213.503 273.474 212.435C272.554 211.038 272.702 210.902 263.533 221.537C256.011 230.262 257.426 234.716 269.664 240.835C280.179 246.093 283.789 245.824 280.016 240.066C278.577 237.87 278.57 237.601 279.949 237.601C280.8 237.601 281.778 238.488 282.122 239.573C283.198 242.961 293.176 250.98 305.002 257.96C319.923 266.767 327.59 273.74 331.837 282.368C334.88 288.548 335.114 289.733 335.04 298.569C334.978 305.983 334.347 310.091 332.201 317.057C329.567 325.605 321.606 342.562 316.217 351.101C313.301 355.723 313.018 354.911 315.141 348.01C320.598 330.265 323.215 301.297 320.526 288.4C319.025 281.203 314.423 271.731 310.692 268.158C306.255 263.909 305.257 265.708 307.643 273.658C312.256 289.036 311.76 305.399 306.097 324.601C297.09 355.146 294.908 366.492 293.694 389.101C292.742 406.824 293.326 415.101 295.53 415.101C296.3 415.101 297.547 413.301 298.302 411.101C301.074 403.02 315.895 375.567 317.453 375.627C317.826 375.641 319.599 377.778 321.393 380.377C323.186 382.975 326.397 387.108 328.527 389.561L332.4 394.021L344.765 392.803C380.759 389.257 412.837 392.337 478.131 405.611C525.894 415.321 547.109 417.966 577.631 418.017C603.131 418.06 614.721 416.81 633.084 412.038C681.181 399.537 716.99 367.955 735.708 321.529C753.278 277.95 755.337 218.663 740.944 170.715C724.362 115.472 690.185 69.582 642.131 38.038C614.578 19.952 582.256 7.52894 548.131 1.91094C535.165 -0.224055 495.015 -0.695042 482.165 1.13696ZM530.959 10.6679C559.206 13.1429 587.009 20.829 612.162 33.116C636.311 44.912 652.8 56.6709 671.671 75.5529C686.685 90.5769 688.927 93.1299 697.004 104.399C717.206 132.585 729.445 161.527 736.631 198.101C739.298 211.677 740.457 247.281 738.769 263.799C736.407 286.918 729.236 313.033 720.836 329.101L716.131 338.101L675.131 348.314C652.581 353.931 633.851 358.544 633.51 358.564C633.168 358.584 632.593 356.373 632.232 353.649C630.74 342.403 620.041 327.871 609.249 322.431C603.163 319.364 601.359 317.115 602.139 313.566C602.652 311.229 602.446 310.601 601.165 310.601C599.85 310.601 599.665 311.268 600.197 314.101C600.627 316.395 600.471 317.601 599.742 317.601C599.005 317.601 598.631 314.403 598.631 308.104C598.631 298.655 598.613 298.587 595.131 294.733C591.416 290.62 590.731 287.099 592.659 282.026C593.484 279.858 593.341 278.938 591.939 277.389C590.176 275.44 589.272 268.527 590.66 267.601C591.072 267.326 590.88 266.61 590.233 266.01C589.378 265.218 588.714 265.286 587.804 266.26C587.116 266.998 587.004 267.601 587.557 267.601C589.078 267.601 587.981 275.556 586.188 277.538C584.418 279.494 584.149 282.185 585.631 283.101C586.181 283.441 586.631 285.404 586.631 287.464C586.631 290.431 585.904 291.913 583.131 294.601L579.631 297.993V307.797C579.631 314.124 579.25 317.601 578.556 317.601C577.946 317.601 577.621 316.229 577.806 314.435C578.001 312.538 577.63 311.102 576.881 310.852C576.079 310.584 575.626 311.449 575.617 313.268C575.596 317.627 574.541 320.601 573.014 320.601C570.924 320.601 571.035 305.044 573.131 304.239C575.038 303.507 575.09 301.601 573.203 301.601C572.231 301.601 571.563 299.924 571.111 296.351C570.467 291.256 570.305 291.035 565.634 288.876L560.82 286.651L560.475 276.848C560.182 268.502 559.796 266.62 557.876 264.182C556.208 262.063 555.9 260.981 556.695 260.024C557.459 259.103 557.46 258.151 556.7 256.731C555.055 253.656 555.386 250.617 557.381 250.485C559.048 250.375 559.048 250.347 557.381 249.912C556.419 249.66 555.579 248.7 555.515 247.778C555.412 246.287 555.348 246.296 554.942 247.851C554.69 248.813 553.73 249.653 552.808 249.717C551.317 249.82 551.326 249.884 552.881 250.29C554.936 250.827 555.342 256.177 553.381 256.887C552.393 257.245 552.408 257.808 553.456 259.576C554.623 261.547 554.516 262.095 552.555 264.182C550.649 266.211 550.26 267.978 549.851 276.476L549.373 286.401L544.621 288.751C540.127 290.973 539.831 291.37 539.191 296.034C538.803 298.862 537.792 301.498 536.822 302.212C535.239 303.379 535.243 303.502 536.881 304.137C538.446 304.743 538.631 306.497 538.631 320.708V336.601H518.631H498.631V330.101C498.631 324.99 498.952 323.601 500.131 323.601C500.956 323.601 501.631 322.926 501.631 322.101C501.631 321.276 500.956 320.601 500.131 320.601C498.872 320.601 498.631 318.447 498.631 307.218C498.631 294.675 498.757 293.801 500.631 293.311C501.731 293.024 502.631 292.326 502.631 291.762C502.631 291.198 501.731 290.45 500.631 290.101C499.531 289.752 498.631 288.874 498.631 288.15C498.631 287.426 499.531 286.599 500.631 286.311C501.731 286.024 502.631 285.296 502.631 284.695C502.631 284.093 501.731 283.601 500.631 283.601C498.721 283.601 498.631 282.934 498.631 268.842C498.631 255.165 498.778 253.99 500.631 252.833C501.731 252.146 502.631 251.133 502.631 250.583C502.631 250.032 501.731 248.811 500.631 247.869C499.531 246.927 498.631 245.117 498.631 243.847C498.631 237.783 492.542 230.616 487.381 230.605C485.844 230.601 485.631 229.504 485.631 221.601C485.631 214.268 485.909 212.601 487.131 212.601C487.956 212.601 488.631 211.926 488.631 211.101C488.631 210.276 487.956 209.601 487.131 209.601C486.022 209.601 485.631 208.438 485.631 205.135C485.631 202.679 484.978 199.191 484.179 197.385C482.763 194.182 482.293 186.645 477.449 89.3809C476.343 67.1689 476.38 65.536 478.029 63.714C479.437 62.158 479.567 61.35 478.676 59.684C478.062 58.538 477.126 57.6009 476.596 57.6009C474.845 57.6009 475.592 53.0789 477.631 51.3329C478.731 50.3909 479.631 48.934 479.631 48.094C479.631 47.254 481.761 44.5269 484.364 42.0319L489.097 37.4969L485.606 37.8549C483.685 38.0519 480.655 38.941 478.873 39.831L475.631 41.4479V38.416C475.631 35.681 475.876 35.446 478.131 36.012C479.506 36.357 480.631 36.2119 480.631 35.6899C480.631 35.1669 479.618 34.596 478.381 34.421C476.604 34.168 476.003 33.2609 475.523 30.1009C474.951 26.3399 474.906 26.2949 474.773 29.3509C474.65 32.1669 474.264 32.6149 471.881 32.7069L469.131 32.814L471.881 33.9C474.108 34.78 474.631 35.6169 474.631 38.2939C474.631 40.1129 474.275 41.6009 473.839 41.6009C472.327 41.6009 469.955 48.448 470.405 51.516C470.728 53.712 471.401 54.6009 472.744 54.6009C474.986 54.6009 475.278 57.1389 473.131 57.9629C471.242 58.6869 471.185 62.4409 473.032 64.5219C474.234 65.8769 474.168 71.2779 472.569 102.601C468.724 177.911 467.521 197.111 466.589 198.043C466.062 198.57 465.631 201.386 465.631 204.301C465.631 208.345 465.276 209.601 464.131 209.601C463.306 209.601 462.631 210.228 462.631 210.994C462.631 211.76 463.306 212.646 464.131 212.963C465.3 213.411 465.631 215.396 465.631 221.958V230.378L462.207 231.021C457.343 231.933 452.631 237.53 452.631 242.395C452.631 245.037 452.049 246.483 450.631 247.369C449.531 248.056 448.631 249.556 448.631 250.703C448.631 251.947 449.438 252.999 450.631 253.311C452.518 253.805 452.631 254.675 452.631 268.718C452.631 282.934 452.541 283.601 450.631 283.601C449.52 283.601 448.631 284.268 448.631 285.101C448.631 285.934 449.52 286.601 450.631 286.601C451.731 286.601 452.631 287.224 452.631 287.984C452.631 288.745 451.731 289.603 450.631 289.891C449.531 290.178 448.631 290.948 448.631 291.601C448.631 292.254 449.531 293.024 450.631 293.311C452.358 293.763 452.63 294.672 452.625 299.968C452.619 305.749 452.444 306.2 449.583 307.828C446.529 309.566 443.631 314.796 443.631 318.569C443.631 319.709 442.972 320.601 442.131 320.601C441.306 320.601 440.631 321.276 440.631 322.101C440.631 322.926 441.306 323.601 442.131 323.601C443.31 323.601 443.631 324.99 443.631 330.101V336.601H440.131H436.631V341.605C436.631 344.698 435.867 348.033 434.631 350.34C433.531 352.392 432.631 355.091 432.631 356.336V358.601H380.131C351.256 358.601 327.631 358.318 327.631 357.973C327.631 357.627 329.088 354.815 330.869 351.723C337.504 340.203 338.732 337.912 342.589 329.852C350.052 314.258 352.131 306.47 352.131 294.101C352.131 283.777 351.932 282.682 348.898 276.276C345.031 268.11 335.873 258.544 327.381 253.798C324.218 252.03 321.631 250.138 321.631 249.592C321.631 249.047 323.82 248.601 326.495 248.601C336.418 248.601 352.131 243.776 360.86 238.048C364.314 235.781 365.509 235.601 377.11 235.601C387.573 235.601 389.631 235.354 389.631 234.101C389.631 233.276 390.099 232.601 390.671 232.601C392.521 232.601 399.077 236.329 401.036 238.495C403.686 241.425 405.252 241.128 406.533 237.452C408.463 231.915 407.632 227.459 403.989 223.816C402.019 221.846 391.253 217.181 381.835 214.216C366.028 209.24 329.756 202.704 291.877 198.005C286.945 197.393 286.905 199.533 292.237 178.795C306.4 123.71 343.46 74.016 393.228 43.378C434.197 18.155 483.308 6.49193 530.959 10.6679ZM278.131 197.601C278.471 198.151 278.021 198.601 277.131 198.601C276.241 198.601 275.791 199.051 276.131 199.601C276.471 200.151 277.622 200.601 278.69 200.601C281.463 200.601 281.094 202.034 277.554 205.012C273.085 208.773 268.631 208.265 268.631 203.994C268.631 202.678 268.167 201.601 267.6 201.601C265.875 201.601 265.24 204.745 266.542 206.831C268.091 209.31 267.2 210.318 265.043 208.528C262.73 206.608 261.711 203.4 262.772 201.375C264.317 198.426 276.752 195.37 278.131 197.601ZM309.631 213.712C319.675 214.855 342.95 218.619 343.548 219.198C344.396 220.019 339.852 219.52 329.631 217.669C315.173 215.051 296.091 213.288 290.381 214.042C286.411 214.567 285.631 214.404 285.631 213.05C285.631 211.31 289.439 211.415 309.631 213.712ZM347.36 220.205C347.028 220.537 346.165 220.573 345.444 220.284C344.646 219.965 344.883 219.728 346.048 219.68C347.102 219.637 347.692 219.873 347.36 220.205ZM333.131 232.069C352.677 234.34 354.18 234.945 344.631 236.698C334.775 238.507 305.856 238.512 293.881 236.706C285.315 235.414 284.631 235.142 284.631 233.022C284.631 231.308 285.321 230.614 287.381 230.258C292.717 229.334 318.314 230.348 333.131 232.069ZM146.394 263.634C139.259 264.835 121.729 271.102 122.798 272.069C122.981 272.235 126.056 271.937 129.631 271.408C143.868 269.298 166.548 272.446 183.743 278.919C204.815 286.85 226.238 302.371 240.889 320.321C257.188 340.29 270.258 367.158 277.023 394.601C279.087 402.975 282.631 423.929 282.631 427.759C282.631 429.478 283.05 430.46 283.631 430.101C284.961 429.279 284.945 391.652 283.609 380.575C282.197 368.862 277.254 349.4 273.021 338.889C256.892 298.835 223.502 271.343 182.246 264.149C172.969 262.531 154.517 262.266 146.394 263.634ZM747.217 302.351C739.914 332.22 733.721 347.467 721.119 366.601C690.536 413.037 644.051 434.618 579.631 432.288C544.28 431.009 501.498 423.023 450.131 408.115C434.351 403.535 418.779 400.116 404.847 398.174C370.204 393.345 344.47 399.703 324.923 417.922C318.425 423.978 309.146 435.45 310.03 436.334C310.277 436.58 312.875 434.991 315.804 432.804C345.426 410.685 381.768 406.566 432.076 419.629C438.531 421.305 454.459 426.001 467.472 430.065C511.636 443.857 524.875 447.36 547.793 451.316C555.87 452.711 563.49 453.092 582.631 453.058C605.533 453.017 607.979 452.833 620.131 450.239C694.901 434.275 735.843 391.344 748.533 315.601C750.453 304.142 752.228 286.601 751.468 286.601C751.247 286.601 749.335 293.688 747.217 302.351ZM120.131 289.301C114.159 290.098 100.969 294.836 93.6313 298.819C89.5063 301.059 85.9063 303.165 85.6313 303.499C85.3563 303.833 82.5633 306.057 79.4253 308.441C73.2983 313.096 63.2253 323.993 57.5523 332.101C51.7993 340.325 47.5883 347.601 48.5813 347.601C49.0943 347.601 49.7853 347.16 50.1183 346.622C51.1403 344.969 61.9253 339.009 68.0263 336.726C103.948 323.286 144.789 327.526 184.631 348.83C192.636 353.111 208.934 363.579 210.631 365.531C210.906 365.847 214.281 368.657 218.131 371.774C236.179 386.391 251.753 405.184 272.351 437.204C273.381 438.804 273.488 438.397 273.037 434.601C269.378 403.797 255.643 371.369 235.127 345.101C212.572 316.22 183.064 296.606 152.316 290.053C146.034 288.715 127.73 288.287 120.131 289.301ZM82.0613 354.579C48.5273 359.337 19.6773 386.004 6.81527 424.132C-0.649729 446.26 -2.09673 475.008 3.04127 499.101L4.32026 505.101L5.05427 499.101C9.45227 463.123 33.0793 435.909 74.0453 419.635C92.7123 412.22 112.661 408.573 138.131 407.921C180.955 406.825 217.046 415.629 255.631 436.584L263.131 440.657L258.631 436.479C231.734 411.501 192.063 384.889 160.131 370.402C132.301 357.775 102.336 351.702 82.0613 354.579ZM741.088 373.306C736.742 380.788 722.079 402.137 715.889 409.994C704.466 424.497 687.011 440.088 673.434 447.915C660.376 455.444 636.646 462.668 613.631 466.122C598.758 468.354 573.452 469.092 559.131 467.713C534.166 465.307 511.203 459.925 479.318 449.004C419.176 428.406 406.853 425.35 383.631 425.278C367.931 425.23 359.631 426.646 342.631 432.276C323.785 438.517 317.12 442.326 306.628 452.851C298.889 460.616 297.501 461.601 294.306 461.601C290.943 461.601 280.371 458.302 278.131 456.555C275.353 454.387 254.643 446.403 243.625 443.252C218.994 436.209 203.282 433.752 177.551 432.918C139.008 431.669 112.329 436.685 82.6633 450.758C68.3863 457.53 62.9573 460.802 53.1313 468.552C29.5173 487.176 10.8363 513.255 3.13227 538.351C2.41427 540.688 1.92927 542.601 2.05427 542.601C2.17927 542.601 4.72226 539.563 7.70426 535.851C26.5593 512.378 33.5223 505.289 49.1313 493.672C79.4103 471.137 109.537 459.929 145.967 457.649C160.237 456.755 178.392 457.583 190.065 459.658C211.864 463.534 245.747 475.248 263.921 485.192C279.935 493.953 284.732 495.875 291.855 496.385C301.05 497.043 306.253 495.398 311.923 490.042C316.666 485.561 321.818 476.709 323.082 470.87C324.463 464.489 337.832 455.537 351.131 452.088C364.669 448.577 385.253 449.161 409.631 453.748C419.658 455.635 447.016 462.334 484.448 472.07C562.375 492.337 612.764 493.301 654.231 475.318C663.759 471.186 664.495 470.776 675.291 463.601C698.271 448.328 718.516 424.135 733.45 394.101C739.821 381.288 744.869 369.505 744.251 368.888C744.044 368.68 742.62 370.668 741.088 373.306Z" fill="#163F5E"/>
</svg>
